<?xml version="1.0" encoding="UTF-8"?>
<svg width="30px" height="30px" viewBox="0 0 30 30" version="1.1" xmlns="http://www.w3.org/2000/svg" xmlns:xlink="http://www.w3.org/1999/xlink">
    <!-- Generator: Sketch 47.1 (45422) - http://www.bohemiancoding.com/sketch -->
    <title>理财 蓝</title>
    <desc>Created with Sketch.</desc>
    <defs></defs>
    <g id="Symbols" stroke="none" stroke-width="1" fill="none" fill-rule="evenodd">
        <g id="理财-蓝">
            <circle id="Oval" fill="#4093E6" cx="15" cy="15" r="15"></circle>
            <g id="理财-(2)" transform="translate(7.000000, 6.000000)" stroke="#FFFFFF" stroke-width="0.5" fill="#FFFFFF" fill-rule="nonzero">
                <path d="M6.33386667,0.535733333 C7.46453333,0.535733333 8.38186667,1.45253333 8.38186667,2.5832 C8.38186667,2.9704 8.26826667,3.32773333 8.0816,3.63653333 C8.01333333,3.63493333 7.94666667,3.6264 7.87893333,3.6264 C6.81333333,3.6264 5.83253333,3.7848 4.94986667,4.08346667 C4.544,3.71013333 4.28533333,3.17893333 4.28533333,2.5832 C4.28586667,1.45253333 5.20266667,0.535733333 6.33386667,0.535733333 L6.33386667,0.535733333 Z M6.33386667,0.0024 C4.91093333,0.0024 3.75253333,1.16026667 3.75253333,2.5832 C3.75253333,3.29733333 4.0576,3.98746667 4.58933333,4.47653333 L4.82186667,4.6904 L5.1216,4.58906667 C5.96213333,4.30426667 6.8896,4.15973333 7.87946667,4.15973333 C7.90506667,4.15973333 7.93066667,4.16186667 7.95573333,4.16346667 C7.9936,4.16613333 8.032,4.1688 8.0704,4.16933333 L8.3792,4.1768 L8.5392,3.91226667 C8.7856,3.50373333 8.91573333,3.04453333 8.91573333,2.58373333 C8.9152,1.16026667 7.75733333,0.0024 6.33386667,0.0024 L6.33386667,0.0024 Z" id="Shape"></path>
                <path d="M12.8250667,2.34746667 C12.1402667,3.756 12.232,5.57146667 12.232,5.57146667 C12.232,5.57146667 12.6064,5.6104 12.9493333,5.76293333 C13.8549333,6.16666667 14.4282667,7.12613333 14.7989333,8.16666667 C14.848,8.30533333 14.9744,8.45626667 15.2970667,8.45626667 L15.9157333,8.45626667 C16.2565333,8.45626667 16.5338667,8.7336 16.5338667,9.07333333 L16.5338667,10.9288 C16.5338667,11.2690667 16.256,11.5464 15.9157333,11.5464 L15.2970667,11.5464 C14.8981333,11.5464 14.7685333,11.7997333 14.6789333,11.9853333 C14.264,12.8546667 13.6213333,13.5581333 12.7674667,14.0221333 C12.3408,14.2546667 12.5402667,14.596 12.5402667,14.596 L12.7365333,15.1149333 C12.864,15.452 12.6928,15.8312 12.3573333,15.9581333 L11.1333333,16.4216 C11.0570667,16.4504 10.9792,16.4637333 10.9024,16.4637333 C10.6384,16.4637333 10.3893333,16.3026667 10.2901333,16.0418667 C10.2901333,16.0418667 10.1434667,15.6925333 10.0234667,15.3373333 C9.9424,15.0978667 9.86186667,15.0306667 9.64533333,15.0306667 C9.37013333,15.0306667 8.87573333,15.1389333 7.87946667,15.1389333 C6.82133333,15.1389333 6.3584,14.9325333 6.1008,14.9325333 C5.94133333,14.9325333 5.85973333,15.0104 5.7648,15.2642667 C5.63093333,15.6189333 5.46933333,16.0418667 5.46933333,16.0418667 C5.37013333,16.3026667 5.12106667,16.4637333 4.85706667,16.4637333 C4.78026667,16.4637333 4.70186667,16.4504 4.62613333,16.4216 L3.40266667,15.9581333 C3.0656,15.8312 2.8944,15.452 3.0224,15.1149333 C3.0224,15.1149333 3.24373333,14.5874667 3.3664,14.2093333 C3.488,13.8306667 3.25386667,13.6824 3.13813333,13.5890667 C2.3216,12.9373333 1.19466667,11.7746667 1.19466667,10.2466667 C1.19466667,9.59173333 1.27253333,8.97466667 1.44533333,8.4104 C1.66826667,7.684 0.533333333,7.58693333 0.533333333,6.2248 C0.533333333,5.3688 1.10933333,4.844 1.6736,4.844 C2.05813333,4.844 2.43733333,5.08773333 2.62506667,5.63546667 C2.3728,5.45146667 2.14293333,5.3768 1.9472,5.3768 C1.2064,5.3768 0.9584,6.4584 1.85226667,6.8328 C1.88213333,6.84506667 1.91253333,6.85093333 1.94453333,6.85093333 C2.30613333,6.85093333 2.78453333,6.1048 2.9376,5.96133333 C4.09973333,4.86906667 5.79413333,4.244 7.87893333,4.244 C8.67573333,4.244 9.43946667,4.3384 10.1530667,4.5128 C10.7856,3.11706667 11.8554667,2.5896 12.8250667,2.34746667 L12.8250667,2.34746667 Z M13.1328,10.3106667 C13.6453333,10.3106667 14.0602667,9.89573333 14.0602667,9.3832 C14.0602667,8.87173333 13.6453333,8.4568 13.1328,8.4568 C12.6213333,8.4568 12.2064,8.87173333 12.2064,9.3832 C12.2064,9.8952 12.6213333,10.3106667 13.1328,10.3106667 L13.1328,10.3106667 Z M13.8042667,1.5528 L12.696,1.83013333 C11.3957333,2.15493333 10.4656,2.83546667 9.86453333,3.90426667 C9.22133333,3.7768 8.55573333,3.71226667 7.87893333,3.71226667 C5.94133333,3.71226667 4.2736,4.2232 3.01653333,5.19546667 C2.736,4.64346667 2.24106667,4.3112 1.6736,4.3112 C1.23733333,4.3112 0.808,4.51013333 0.496,4.8568 C0.176,5.21146667 0,5.69733333 0,6.2248 C0,7.16933333 0.446933333,7.66 0.742933333,7.98533333 C0.817066667,8.0664 0.929066667,8.19013333 0.9424,8.23546667 C0.754133333,8.8472 0.661866667,9.5176 0.661866667,10.2466667 C0.661866667,11.9394667 1.82773333,13.2253333 2.80586667,14.0056 L2.8352,14.0290667 C2.84266667,14.0349333 2.85066667,14.0402667 2.85866667,14.0466667 C2.74506667,14.3970667 2.5328,14.9037333 2.53066667,14.9085333 C2.4112,15.2216 2.42133333,15.5437333 2.552,15.8338667 C2.68266667,16.1234667 2.91786667,16.3448 3.2144,16.4568 L4.43626667,16.9197333 C4.5712,16.9714667 4.71253333,16.9970667 4.85653333,16.9970667 C5.3472,16.9970667 5.7936,16.6893333 5.96746667,16.2306667 L5.96746667,16.2306667 C5.96746667,16.2306667 6.11786667,15.8370667 6.24906667,15.4904 C6.27573333,15.4957333 6.30293333,15.5016 6.328,15.5064 C6.6416,15.572 7.11573333,15.6717333 7.87893333,15.6717333 C8.55946667,15.6717333 9.02186667,15.6226667 9.32693333,15.5901333 C9.408,15.5810667 9.47946667,15.5741333 9.53813333,15.5688 C9.65813333,15.9149333 9.792,16.2344 9.79733333,16.2482667 C9.96426667,16.6888 10.4106667,16.9965333 10.9013333,16.9965333 C11.0453333,16.9965333 11.1861333,16.9709333 11.3210667,16.9197333 L12.5450667,16.4562667 C13.1562667,16.2242667 13.4661333,15.5373333 13.2341333,14.9250667 L13.0608,14.468 C13.9706667,13.9629333 14.6954667,13.1842667 15.1589333,12.2141333 C15.1728,12.1848 15.2133333,12.1021333 15.2341333,12.0861333 L15.2341333,12.0861333 C15.2346667,12.0861333 15.2512,12.0786667 15.296,12.0786667 L15.9146667,12.0786667 C16.5493333,12.0786667 17.0661333,11.5624 17.0661333,10.9277333 L17.0661333,9.07226667 C17.0661333,8.43813333 16.5493333,7.92186667 15.9146667,7.92186667 L15.296,7.92186667 C15.2890667,7.92186667 15.2826667,7.92186667 15.2773333,7.92133333 C14.7834667,6.56933333 14.0730667,5.6792 13.1658667,5.27493333 C13.0288,5.21413333 12.8896,5.16773333 12.7642667,5.13306667 C12.7813333,4.55226667 12.8746667,3.4632 13.3045333,2.57946667 L13.8042667,1.5528 L13.8042667,1.5528 Z M1.94613333,6.28026667 C1.84533333,6.20986667 1.7984,6.11813333 1.8176,6.02373333 C1.83253333,5.94853333 1.87626667,5.91066667 1.9472,5.91066667 C1.992,5.91066667 2.08,5.92346667 2.2112,6.00133333 C2.12533333,6.10266667 2.02506667,6.2152 1.94613333,6.28026667 L1.94613333,6.28026667 Z M13.1328,9.77733333 C12.9162667,9.77733333 12.7397333,9.60026667 12.7397333,9.3832 C12.7397333,9.16666667 12.9162667,8.99013333 13.1328,8.99013333 C13.3498667,8.99013333 13.5269333,9.16666667 13.5269333,9.3832 C13.5269333,9.60026667 13.3498667,9.77733333 13.1328,9.77733333 L13.1328,9.77733333 Z" id="Shape"></path>
            </g>
        </g>
    </g>
</svg>