<?xml version="1.0" encoding="UTF-8"?>
<svg width="38px" height="30px" viewBox="0 0 38 30" version="1.1" xmlns="http://www.w3.org/2000/svg" xmlns:xlink="http://www.w3.org/1999/xlink">
    <!-- Generator: Sketch 47.1 (45422) - http://www.bohemiancoding.com/sketch -->
    <title>皇冠</title>
    <desc>Created with Sketch.</desc>
    <defs></defs>
    <g id="Symbols" stroke="none" stroke-width="1" fill="none" fill-rule="evenodd">
        <g id="皇冠" fill-rule="nonzero">
            <g id="Shape">
                <polygon fill="#FEB12C" points="1.75177304 7.72423024 1.75177304 30 24.1744681 30"></polygon>
                <polygon fill="#FEB12C" points="36.248227 7.72423024 36.248227 30 15.5503546 30"></polygon>
                <polygon fill="#FE992C" points="19 4.29718876 1.75177304 30 36.248227 30"></polygon>
                <path d="M0.0269503681,6.01070952 C0.0268560195,6.622954 0.355584731,7.18873133 0.889285476,7.49488063 C1.42298622,7.80102993 2.08055989,7.80102993 2.61426064,7.49488063 C3.14796138,7.18873133 3.47669009,6.622954 3.47659574,6.01070952 C3.47669009,5.39846504 3.14796138,4.8326877 2.61426064,4.5265384 C2.08055989,4.2203891 1.42298622,4.2203891 0.889285476,4.5265384 C0.355584731,4.8326877 0.0268560195,5.39846504 0.0269503681,6.01070952 L0.0269503681,6.01070952 Z" fill="#FEB12C"></path>
                <path d="M34.5234043,6.01070952 C34.5233099,6.622954 34.8520386,7.18873133 35.3857394,7.49488063 C35.9194401,7.80102993 36.5770138,7.80102993 37.1107145,7.49488063 C37.6444153,7.18873133 37.973144,6.622954 37.9730496,6.01070952 C37.973144,5.39846504 37.6444153,4.8326877 37.1107145,4.5265384 C36.5770138,4.2203891 35.9194401,4.2203891 35.3857394,4.5265384 C34.8520386,4.8326877 34.5233099,5.39846504 34.5234043,6.01070952 L34.5234043,6.01070952 Z" fill="#FEB12C"></path>
                <path d="M16.412766,2.58366799 C16.412766,4.00319506 17.5711101,5.15394912 19,5.15394912 C20.4288899,5.15394912 21.587234,4.00319506 21.587234,2.58366799 C21.587234,1.16414092 20.4288899,0.0133868675 19,0.0133868675 C17.5711101,0.0133868675 16.412766,1.16414092 16.412766,2.58366799 Z" fill="#FE992C"></path>
            </g>
        </g>
    </g>
</svg>