
<svg width="50px" height="65px" viewBox="0 0 50 65" version="1.1" xmlns="http://www.w3.org/2000/svg" xmlns:xlink="http://www.w3.org/1999/xlink">
    <!-- Generator: Sketch 47.1 (45422) - http://www.bohemiancoding.com/sketch -->
    <desc>Created with Sketch.</desc>
    <defs></defs>
    <g id="红白基色-国元证券-微信服务号升级UI-Copy" stroke="none" stroke-width="1" fill="none" fill-rule="evenodd">
        <g id="资产360" transform="translate(-38.000000, -708.000000)" fill-rule="nonzero">
            <g id="金银铜牌" transform="translate(13.000000, 708.000000)">
                <g id="奖牌" transform="translate(25.000000, 0.000000)">
                    <path d="M25.1225976,14.5095345 C11.5108859,14.5095345 0.475,25.7204204 0.475,39.5502252 C0.475,53.3798048 11.510961,64.5906907 25.1225976,64.5906907 C38.7382132,64.5906907 49.7725976,53.3798048 49.7725976,39.5502252 C49.7725976,25.7204204 38.7385135,14.5095345 25.1225976,14.5095345 Z M37.7987237,37.3159159 L32.938964,42.1288288 L34.0854354,48.9245495 C34.4712462,51.2059309 33.1879129,52.2036787 31.1318318,51.1056306 L25.123048,47.8965465 L19.1172673,51.1056306 C17.1012012,52.1825826 15.7702703,51.2518018 16.162988,48.9245495 L17.3102102,42.1288288 L12.4506757,37.3159159 C10.8187688,35.7006006 11.2795045,34.1286036 13.5797297,33.7885886 L20.2954955,32.7969219 L23.2987237,26.6148649 C24.3070571,24.5384384 25.9231231,24.4972222 26.9509009,26.6148649 L29.9551051,32.7969219 L36.6706456,33.7885886 C38.9245495,34.1212462 39.4626126,35.6689189 37.7987237,37.3159159 L37.7987237,37.3159159 Z M48.1659159,0.0736486486 L32.9253754,0.0736486486 C32.1022523,0.0736486486 31.4436937,0.657807808 31.2499249,1.43228228 L26.5522523,10.8433183 C26.5522523,10.8433183 36.6114114,11.4591592 42.5542042,17.2711712 L49.571021,2.88708709 C49.778979,2.59211712 49.9275526,2.25187688 49.9275526,1.86216216 C49.9275526,0.874324324 49.1382132,0.0736486486 48.1659159,0.0736486486 Z M23.4475976,10.8437688 L18.75,1.43265766 C18.5562312,0.657807808 17.896021,0.0739489489 17.0744745,0.0739489489 L1.83318318,0.0739489489 C0.860810811,0.0739489489 0.0724474474,0.874249249 0.0724474474,1.86253754 C0.0724474474,2.25225225 0.22027027,2.59294294 0.429054054,2.88746246 L7.4457958,17.2716967 C13.3882883,11.4592342 23.4475976,10.8437688 23.4475976,10.8437688 Z" id="Shape" fill="#E9B73E"></path>
                    <path d="M0.475,39.5502252 C0.475,52.9382883 10.8175676,63.8718468 23.827027,64.5563814 L26.8307808,48.8085586 L25.123048,47.8965465 L19.1172673,51.1056306 C17.1012012,52.1825826 15.7702703,51.2518018 16.162988,48.9245495 L17.3102102,42.1288288 L12.4506757,37.3159159 C10.8187688,35.7006006 11.2795045,34.1286036 13.5797297,33.7885886 L20.2954955,32.7969219 L23.2987237,26.6148649 C24.3070571,24.5384384 25.9231231,24.4972222 26.9509009,26.6148649 L29.9048799,32.6933934 L33.1163664,15.8563063 C30.6096096,14.9838589 27.9208709,14.5095345 25.1225976,14.5095345 C11.5108859,14.5095345 0.475,25.7204204 0.475,39.5502252 Z M7.4457958,17.2716967 C13.3882883,11.4592342 23.4475976,10.8437688 23.4475976,10.8437688 L18.75,1.43265766 C18.5562312,0.657807808 17.896021,0.0739489489 17.0744745,0.0739489489 L1.83318318,0.0739489489 C0.860810811,0.0739489489 0.0724474474,0.874249249 0.0724474474,1.86253754 C0.0724474474,2.25225225 0.22027027,2.59294294 0.429054054,2.88746246 L7.4457958,17.2716967 L7.4457958,17.2716967 Z M31.2499249,1.43228228 L26.5522523,10.8433183 C26.5522523,10.8433183 29.8545045,11.046021 33.7924925,12.3117117 L36.1268769,0.0736486486 L32.9253754,0.0736486486 C32.1023273,0.0736486486 31.4436937,0.657807808 31.2499249,1.43228228 Z" id="Shape" fill="#FFCA46"></path>
                </g>
            </g>
        </g>
    </g>
</svg>