
<svg width="30px" height="30px" viewBox="0 0 30 30" version="1.1" xmlns="http://www.w3.org/2000/svg" xmlns:xlink="http://www.w3.org/1999/xlink">
    <!-- Generator: Sketch 47.1 (45422) - http://www.bohemiancoding.com/sketch -->
    <desc>Created with Sketch.</desc>
    <defs>
        <path d="M7.64395664,20 C5.37883437,20 3.67999268,18.4041184 3.67999268,16.005148 C3.67999268,13.6885457 5.37883437,12.010296 7.64395664,12.010296 C9.9090789,12.010296 11.6182166,13.6885457 11.6182166,16.005148 C11.6182166,18.4041184 9.9090789,20 7.64395664,20 Z" id="path-1"></path>
        <path d="M7.64395664,18.9189189 C9.16776616,18.9189189 10.4032874,17.7760618 10.4032874,16.005148 C10.4032874,14.2239382 9.16776616,13.0707851 7.64395664,13.0707851 C6.12014712,13.0707851 4.88462588,14.2239382 4.88462588,16.005148 C4.88462588,17.7760618 6.12014712,18.9189189 7.64395664,18.9189189 Z" id="path-2"></path>
        <path d="M14.9541239,19.3719434 C14.9541239,19.7220077 15.2630043,19.8970399 15.5718846,19.8970399 C15.8910609,19.8970399 16.2102372,19.7220077 16.1896452,19.3616474 C16.1587572,18.5997426 16.1381651,17.3436293 16.1381651,16.1081081 C16.1381651,15.0990991 16.1484611,14.1003861 16.1690532,13.4002574 C16.1690532,13.1943372 16.1690532,13.1943372 17.1883582,13.1943372 C17.4354624,13.1943372 17.7340467,13.1943372 18.0841111,13.2149292 L18.1252951,13.2149292 C18.4547675,13.2149292 18.6195036,12.9472329 18.6195036,12.6692407 C18.6195036,12.4427284 18.4856555,12.1029601 18.0841111,12.1132561 C17.4972385,12.1235521 16.6220776,12.1338481 15.7469167,12.1338481 C14.6761317,12.1338481 13.5847546,12.1235521 12.966994,12.1132561 L12.9464019,12.1132561 C12.5654496,12.1132561 12.3801214,12.3809524 12.3801214,12.6589447 C12.3801214,12.9369369 12.5757456,13.2149292 12.966994,13.2149292 C13.4509064,13.2149292 13.9348189,13.1943372 14.3260673,13.1943372 C14.9335319,13.1943372 14.96442,13.1943372 14.96442,13.4002574 C14.985012,13.9459459 14.985012,14.8005148 14.985012,15.7065637 C14.985012,17.0656371 14.974716,18.5585586 14.9541239,19.3616474 L14.9541239,19.3719434 Z" id="path-3"></path>
        <path d="M26.4650635,18.3320463 C26.4650635,17.981982 26.1252951,17.6731017 25.7752308,17.6731017 C25.5899026,17.6731017 25.4148704,17.7451737 25.2707263,17.9407979 C24.8485898,18.5070785 24.0763891,18.8056628 23.2938923,18.8056628 C21.1214341,18.8056628 20.6169296,16.8700129 20.6169296,16.005148 C20.6169296,14.6151866 21.5435705,13.1325611 23.2835963,13.1325611 C23.9322449,13.1325611 24.5808936,13.3693694 24.982438,13.8635779 C25.1368781,14.0592021 25.3222063,14.1415701 25.5075345,14.1415701 C25.8370068,14.1415701 26.1355911,13.8532819 26.1355911,13.5032175 C26.1355911,12.9472329 25.023622,12 23.3865564,12 C20.8743299,12 19.4020004,13.98713 19.4020004,16.0772201 C19.4020004,18.0849421 20.7816658,19.989704 23.3453723,19.989704 C25.2398382,19.989704 26.4650635,18.8674389 26.4650635,18.3320463 Z" id="path-4"></path>
    </defs>
    <g id="红白基色-国元证券-微信服务号升级UI-Copy" stroke="none" stroke-width="1" fill="none" fill-rule="evenodd">
        <g id="资产360" transform="translate(-188.000000, -245.000000)">
            <g id="otc" transform="translate(188.000000, 245.000000)">
                <g id="OTC">
                    <circle id="Oval" fill="#FF9743" fill-rule="evenodd" cx="15" cy="15" r="15"></circle>
                    <g id="Path">
                        <use fill="#FFFFFF" fill-rule="evenodd" xlink:href="#path-1"></use>
                        <use fill="#FFFFFF" fill-opacity="1" xlink:href="#path-1"></use>
                    </g>
                    <g id="Path">
                        <use fill="#FF9743" fill-rule="evenodd" xlink:href="#path-2"></use>
                        <use fill="FFFFFF" fill-opacity="1" xlink:href="#path-2"></use>
                    </g>
                    <g id="Path">
                        <use fill="#FFFFFF" fill-rule="evenodd" xlink:href="#path-3"></use>
                        <use fill="#FFFFFF" fill-opacity="1" xlink:href="#path-3"></use>
                    </g>
                    <g id="Path">
                        <use fill="#FFFFFF" fill-rule="evenodd" xlink:href="#path-4"></use>
                        <use fill="#FFFFFF" fill-opacity="1" xlink:href="#path-4"></use>
                    </g>
                </g>
            </g>
        </g>
    </g>
</svg>