<?xml version="1.0" encoding="UTF-8"?>
<svg width="30px" height="30px" viewBox="0 0 30 30" version="1.1" xmlns="http://www.w3.org/2000/svg" xmlns:xlink="http://www.w3.org/1999/xlink">
    <!-- Generator: Sketch 47.1 (45422) - http://www.bohemiancoding.com/sketch -->
    <title>其他 黄</title>
    <desc>Created with Sketch.</desc>
    <defs></defs>
    <g id="Symbols" stroke="none" stroke-width="1" fill="none" fill-rule="evenodd">
        <g id="其他-黄">
            <circle id="Oval" fill="#FDD94A" cx="15" cy="15" r="15"></circle>
            <g id="其他" transform="translate(7.000000, 7.000000)" fill-rule="nonzero" fill="#FFFFFF">
                <path d="M6.12911981,8.68550921 L1.43819501,8.68550921 C0.657605239,8.68550921 0.0226136652,9.32050081 0.0226136652,10.1009787 L0.0226136652,14.5631543 C0.0226136652,15.3437441 0.657605262,15.9787356 1.43819501,15.9787356 L6.12911981,15.9787356 C6.90970958,15.9787356 7.54470116,15.3436321 7.54470116,14.5631543 L7.54470116,10.1009787 C7.54470116,9.32050079 6.90970958,8.68550921 6.12911981,8.68550921 Z M6.42557606,14.5632662 C6.42557606,14.7267704 6.292624,14.8597225 6.12911981,14.8597225 L1.43819501,14.8597225 C1.27480275,14.8597225 1.14173876,14.7267704 1.14173876,14.5632662 L1.14173876,10.1010906 C1.14173876,9.9376983 1.27469082,9.80474624 1.43819501,9.80474624 L6.12911981,9.80474624 C6.29251207,9.80474624 6.42557606,9.9376983 6.42557606,10.1010906 L6.42557606,14.5632662 Z" id="Shape"></path>
                <path d="M6.12911981,0.0505636978 L1.43819501,0.0505636978 C0.657605239,0.0505636978 0.0226136652,0.6856672 0.0226136652,1.46614504 L0.0226136652,5.92832069 C0.0226136652,6.70891046 0.657605262,7.34379013 1.43819501,7.34379013 L6.12911981,7.34379013 C6.90970958,7.34379013 7.54470116,6.70879853 7.54470116,5.92832069 L7.54470116,1.46625695 C7.54470116,0.6856672 6.90970958,0.0505636978 6.12911981,0.0505636978 Z M6.42557606,5.92843259 C6.42557606,6.09182485 6.292624,6.22477691 6.12911981,6.22477691 L1.43819501,6.22477691 C1.27480275,6.22477691 1.14173876,6.09182485 1.14173876,5.92843259 L1.14173876,1.46625695 C1.14173876,1.30275276 1.27469082,1.1698007 1.43819501,1.1698007 L6.12911981,1.1698007 C6.29251207,1.1698007 6.42557606,1.30275276 6.42557606,1.46625695 L6.42557606,5.92843259 Z" id="Shape"></path>
                <path d="M15.0120635,8.68550921 L10.3211387,8.68550921 C9.54054888,8.68550921 8.90555731,9.32050081 8.90555731,10.1009787 L8.90555731,14.5631543 C8.90555731,15.3437441 9.54054891,15.9787356 10.3211387,15.9787356 L15.0120635,15.9787356 C15.7926532,15.9787356 16.4276448,15.3436321 16.4276448,14.5631543 L16.4276448,10.1009787 C16.4276448,9.32050079 15.7926532,8.68550921 15.0120635,8.68550921 Z M15.3085197,14.5632662 C15.3085197,14.7267704 15.1755676,14.8597225 15.0120635,14.8597225 L10.3211387,14.8597225 C10.1577464,14.8597225 10.0246824,14.7267704 10.0246824,14.5632662 L10.0246824,10.1010906 C10.0246824,9.9376983 10.1576345,9.80474624 10.3211387,9.80474624 L15.0120635,9.80474624 C15.1755676,9.80474624 15.3085197,9.9376983 15.3085197,10.1010906 L15.3085197,14.5632662 Z" id="Shape"></path>
                <path d="M12.6112044,7.39762003 C14.6476763,7.39762003 16.3043172,5.74086722 16.3043172,3.70450716 C16.3043172,1.66814711 14.6475644,0.0113942993 12.6112044,0.0113942993 C10.5748443,0.0113942993 8.9180915,1.66814711 8.9180915,3.70450716 C8.9180915,5.74086722 10.5748443,7.39762003 12.6112044,7.39762003 Z M12.6112044,1.13051942 C14.0304788,1.13051942 15.1851921,2.28512081 15.1851921,3.70450716 C15.1851921,5.12389352 14.0304788,6.27849491 12.6112044,6.27849491 C11.1919299,6.27849491 10.0372166,5.12389352 10.0372166,3.70450716 C10.0372166,2.28512081 11.1919299,1.13051942 12.6112044,1.13051942 Z" id="Shape"></path>
            </g>
        </g>
    </g>
</svg>