
<svg width="15px" height="25px" viewBox="0 0 15 25" version="1.1" xmlns="http://www.w3.org/2000/svg" xmlns:xlink="http://www.w3.org/1999/xlink">
    <!-- Generator: Sketch 47.1 (45422) - http://www.bohemiancoding.com/sketch -->
    <desc>Created with Sketch.</desc>
    <defs></defs>
    <g id="红白基色-国元证券-微信服务号升级UI-Copy" stroke="none" stroke-width="1" fill="none" fill-rule="evenodd">
        <g id="微学堂" transform="translate(-340.000000, -76.000000)" fill-rule="nonzero" fill="#E32C35">
            <g id="升级" transform="translate(340.000000, 76.000000)">
                <path d="M8.04718654,0.2714402 C7.59297415,-0.11661088 6.90079457,-0.095584163 6.44237703,0.379680634 C3.82022648,3.06297249 2.41587195,6.53679121 2.48822289,10.1620133 C2.49549141,10.5367771 2.50401311,10.9345093 2.51782606,11.3437536 L0.275392591,14.0693486 C0.0922595087,14.2929308 -0.00590717391,14.5706055 0.000275223574,14.8518586 L0.0734616117,18.4994945 C0.0803959289,18.9009994 0.3048565,19.2651388 0.658869245,19.4506344 C1.01171235,19.6348262 1.45186114,19.6168786 1.80657009,19.4041426 L4.08114097,18.0471427 C5.14685524,19.4869457 6.58148129,19.7231495 7.63246358,19.6539112 C7.72380734,19.6465601 7.81464982,19.6381273 7.9033758,19.6277803 C9.24688089,19.465808 10.3257119,18.7872665 11.0786016,17.6284947 L13.306888,18.6357798 C13.6694781,18.7988617 14.1085965,18.7577514 14.4538647,18.5271788 C14.5031848,18.4938634 14.5481326,18.4583288 14.5899335,18.4209633 C14.8564735,18.1824571 15.0060767,17.8470838 14.9998108,17.500143 L14.9255104,13.8534225 C14.9201635,13.571365 14.811832,13.3071718 14.6184506,13.1081947 L12.4041165,10.8252426 C12.4016936,10.3825443 12.3928377,9.94642021 12.3836755,9.49967186 C12.3110461,5.87461609 10.7711241,2.59835974 8.04718654,0.2714402 L8.04718654,0.2714402 Z M8.51256625,9.79715267 C7.82289306,10.3947774 6.80151394,10.3484243 6.23131169,9.69371122 C5.65913219,9.03847105 5.75560009,8.02211507 6.44396439,7.4255999 C7.13280212,6.82708747 8.15462682,6.87388439 8.7263886,7.52948518 C9.29656301,8.18503049 9.20098626,9.19900088 8.51256625,9.79715267 L8.51256625,9.79715267 Z M9.59203778,20.5389472 L5.62482259,20.5229136 C5.48142961,20.5217763 5.34324434,20.5988927 5.26596417,20.7246092 C5.18731943,20.8491883 5.18080283,21.0015627 5.24683213,21.1253096 L7.18769195,24.483093 C7.23133086,24.5414019 7.24405774,24.5761043 7.30262354,24.6423468 C7.45464962,24.8143609 7.55908227,24.7790759 7.76020562,24.5448139 L7.6813381,24.63114 C7.71038429,24.6051201 7.82183482,24.4811512 7.84333403,24.4471423 L9.91505492,21.1395956 C9.99241863,21.0153493 9.99988209,20.8621983 9.93232112,20.7381462 C9.86631968,20.614427 9.73626622,20.5392523 9.59203778,20.5389472 L9.59203778,20.5389472 Z" id="Shape"></path>
            </g>
        </g>
    </g>
</svg>