<?xml version="1.0" encoding="UTF-8"?>
<svg width="30px" height="30px" viewBox="0 0 30 30" version="1.1" xmlns="http://www.w3.org/2000/svg" xmlns:xlink="http://www.w3.org/1999/xlink">
    <!-- Generator: Sketch 47.1 (45422) - http://www.bohemiancoding.com/sketch -->
    <title>股票 红</title>
    <desc>Created with Sketch.</desc>
    <defs></defs>
    <g id="Symbols" stroke="none" stroke-width="1" fill="none" fill-rule="evenodd">
        <g id="股票-红">
            <g id="Group-2" transform="translate(-0.000000, 0.000000)">
                <circle id="Oval" fill="#EC4317" cx="15" cy="15" r="15"></circle>
                <path d="M23.0313112,23 L7.89775342,23 C7.51300196,23 7.19237573,22.6793738 7.19237573,22.2946223 L7.19237573,18.0623562 C7.19237573,17.3569785 7.51300196,17.0363523 7.89775342,17.3569785 L9.94976125,18.9601096 C10.2062622,19.2166106 10.6551389,19.5372368 10.8475147,19.2166106 L13.1560235,16.3950998 C13.4125245,16.1385988 13.7972759,15.7538474 14.0537769,15.9462231 L16.0416595,17.6776047 C16.2981605,17.9341057 16.8752877,18.3188571 17.1317886,17.9982309 L22.2618082,12.0987084 C22.9030607,11.3292055 23.6725636,11.5215812 23.6725636,12.4193346 L23.6725636,22.2946223 C23.6725636,22.6793738 23.3519374,23 23.0313112,23 L23.0313112,23 Z M17.1317886,15.6255969 C16.9394129,15.8820978 16.6829119,16.0103483 16.3622857,16.0103483 C16.0416595,16.0744736 15.7851585,15.9462231 15.5286575,15.7538474 L13.284274,13.83009 L10.9757652,16.8439765 C10.7833894,17.1004775 10.5268885,17.228728 10.2062622,17.2928532 L10.0780117,17.2928532 C9.82151076,17.2928532 9.56500978,17.228728 9.37263405,17.0363523 L7.38475147,15.4332211 C6.93587476,15.0484697 6.87174951,14.343092 7.25650098,13.8942153 C7.64125245,13.4453386 8.34663014,13.3812133 8.79550685,13.7659648 L9.88563601,14.6637182 L12.1941448,11.6498317 C12.3865205,11.457456 12.6430215,11.2650802 12.9636477,11.2650802 C13.284274,11.200955 13.540775,11.3292055 13.7972759,11.5215812 L16.1057847,13.4453386 L19.055546,9.79019961 L18.2219178,9.08482192 C17.6447906,8.63594521 17.7730411,8.058818 18.4784188,7.93056751 L22.7748102,7.03281409 C23.5443131,6.9045636 23.7366888,7.22518982 23.2878121,7.86644227 L17.1317886,15.6255969 Z" id="Shape" stroke="#F0502F" fill="#FFFFFF" fill-rule="nonzero"></path>
            </g>
        </g>
    </g>
</svg>