<?xml version="1.0" encoding="UTF-8"?>
<svg width="30px" height="30px" viewBox="0 0 30 30" version="1.1" xmlns="http://www.w3.org/2000/svg" xmlns:xlink="http://www.w3.org/1999/xlink">
    <!-- Generator: Sketch 47.1 (45422) - http://www.bohemiancoding.com/sketch -->
    <title>股票中蓝</title>
    <desc>Created with Sketch.</desc>
    <defs></defs>
    <g id="Symbols" stroke="none" stroke-width="1" fill="none" fill-rule="evenodd">
        <g id="股票中蓝">
            <circle id="Oval" fill="#2667A8" cx="15" cy="15" r="15"></circle>
            <path d="M23.0274452,21.995054 L7.89388751,21.995054 C7.50913604,21.995054 7.18850982,21.6744278 7.18850982,21.2896763 L7.18850982,17.0574102 C7.18850982,16.3520325 7.50913604,16.0314063 7.89388751,16.3520325 L9.94589534,17.9551636 C10.2023963,18.2116646 10.651273,18.5322908 10.8436488,18.2116646 L13.1521576,15.3901538 C13.4086585,15.1336528 13.79341,14.7489014 14.049911,14.9412771 L16.0377936,16.6726587 C16.2942946,16.9291597 16.8714218,17.3139111 17.1279227,16.9932849 L22.2579423,11.0937624 C22.8991948,10.3242595 23.6686977,10.5166352 23.6686977,11.4143886 L23.6686977,21.2896763 C23.6686977,21.6744278 23.3480715,21.995054 23.0274452,21.995054 L23.0274452,21.995054 Z M17.1279227,14.6206509 C16.935547,14.8771519 16.679046,15.0054023 16.3584198,15.0054023 C16.0377936,15.0695276 15.7812926,14.9412771 15.5247916,14.7489014 L13.2804081,12.825144 L10.9718993,15.8390305 C10.7795235,16.0955315 10.5230225,16.223782 10.2023963,16.2879072 L10.0741458,16.2879072 C9.81764485,16.2879072 9.56114387,16.223782 9.36876814,16.0314063 L7.38088555,14.4282751 C6.93200884,14.0435237 6.8678836,13.338146 7.25263507,12.8892693 C7.63738653,12.4403926 8.34276422,12.3762673 8.79164094,12.7610188 L9.88177009,13.6587722 L12.1902789,10.6448857 C12.3826546,10.45251 12.6391556,10.2601342 12.9597818,10.2601342 C13.2804081,10.196009 13.536909,10.3242595 13.79341,10.5166352 L16.1019188,12.4403926 L19.0516801,8.78525361 L18.2180519,8.07987592 C17.6409247,7.63099921 17.7691752,7.05387201 18.4745529,6.92562152 L22.7709443,6.02786809 C23.5404472,5.8996176 23.7328229,6.22024383 23.2839462,6.86149627 L17.1279227,14.6206509 Z" id="Shape" stroke="#2667A8" fill="#FFFFFF" fill-rule="nonzero"></path>
        </g>
    </g>
</svg>